<?xml version="1.0" standalone="no"?>
<!DOCTYPE svg PUBLIC "-//W3C//DTD SVG 20010904//EN"
 "http://www.w3.org/TR/2001/REC-SVG-20010904/DTD/svg10.dtd">
<svg version="1.0" xmlns="http://www.w3.org/2000/svg"
 width="2080.000000pt" height="2080.000000pt" viewBox="0 0 2080.000000 2080.000000"
 preserveAspectRatio="xMidYMid meet">
<metadata>
Created by potrace 1.14, written by Peter Selinger 2001-2017
</metadata>
<g transform="translate(0.000000,2080.000000) scale(0.100000,-0.100000)"
fill="#000000" stroke="none">
<path d="M7658 13095 c-845 -121 -1547 -409 -2458 -1010 -102 -68 -365 -247
-585 -400 -670 -465 -1057 -710 -1352 -859 -97 -48 -406 -180 -518 -221 -195
-71 -429 -114 -630 -116 -104 -1 -131 3 -200 25 -213 69 -395 230 -486 432
-133 292 -125 633 21 929 170 345 502 536 862 495 179 -20 311 -86 462 -230
51 -49 105 -94 120 -100 79 -30 121 4 120 95 -1 43 -10 70 -48 140 -135 254
-287 411 -506 524 -188 97 -333 127 -563 118 -962 -39 -1651 -605 -1841 -1513
-61 -294 -73 -695 -27 -944 95 -510 280 -940 560 -1300 98 -126 300 -330 437
-440 629 -506 1530 -816 2839 -979 487 -60 537 -63 1029 -58 480 5 660 17
1031 68 1597 219 3104 869 4355 1877 58 47 110 89 117 94 7 6 68 -37 185 -130
1215 -976 2666 -1608 4208 -1831 412 -60 725 -81 1205 -81 330 0 436 4 600 20
803 82 1426 202 1949 375 230 76 390 141 611 250 836 413 1356 1044 1569 1906
54 218 67 307 73 509 19 630 -191 1192 -597 1599 -263 262 -592 442 -950 519
-52 12 -165 28 -250 38 -180 19 -311 11 -452 -31 -214 -62 -417 -194 -546
-358 -75 -95 -201 -296 -213 -341 -23 -86 25 -154 102 -143 34 4 55 19 137 99
152 147 284 213 479 239 346 46 705 -183 864 -550 67 -158 84 -243 83 -436 -1
-151 -4 -181 -27 -270 -52 -193 -165 -377 -295 -480 -80 -64 -203 -123 -297
-142 -70 -14 -99 -15 -230 -5 -340 26 -606 113 -1120 367 -388 191 -733 410
-1430 906 -688 491 -986 679 -1385 879 -751 376 -1519 541 -2216 475 -890 -84
-1499 -321 -1953 -760 l-104 -101 -99 98 c-257 253 -587 446 -990 577 -381
123 -799 190 -1238 197 -218 3 -264 1 -412 -21z"/>
</g>
</svg>
